<?xml version="1.0" encoding="utf-8"?>
<!-- Generator: Adobe Illustrator 23.0.1, SVG Export Plug-In . SVG Version: 6.00 Build 0)  -->
<svg version="1.1" id="Layer_1" xmlns="http://www.w3.org/2000/svg" xmlns:xlink="http://www.w3.org/1999/xlink" x="0px" y="0px"
	 viewBox="0 0 60 60" style="enable-background:new 0 0 120 60;" xml:space="preserve">
<style type="text/css">
	.st0{clip-path:url(#SVGID_2_);}
	.st1{fill:#39CEFD;}
	.st2{clip-path:url(#SVGID_4_);fill:#39CEFD;}
	.st3{clip-path:url(#SVGID_6_);fill:#03569B;}
	.st4{clip-path:url(#SVGID_8_);fill:url(#SVGID_9_);}
	.st5{clip-path:url(#SVGID_11_);}
	.st6{fill:#16B9FD;}
	.st7{fill:url(#SVGID_12_);}
	.st8{fill:#FFF;}
</style>
<g transform="matrix(.03881911 0 0 .03881916 -.560501 8.162276)">
	<g>
		<defs>
			<path id="SVGID_1_" d="M959.4,500L679.8,779.7l279.6,279.7H639.9L520,939.5L360.2,779.7L639.9,500H959.4z M639.9,20.7L120.6,540
				l159.8,159.8l679-679.1H639.9z"/>
		</defs>
		<clipPath id="SVGID_2_">
			<use xlink:href="#SVGID_1_"  style="overflow:visible;"/>
		</clipPath>
		<g class="st0">
			<path class="st1" d="M520,939.5L959.4,500H639.9L360.3,779.7L520,939.5z"/>
		</g>
	</g>
	<g>
		<defs>
			<path id="SVGID_3_" d="M959.4,500L679.8,779.7l279.6,279.7H639.9L520,939.5L360.2,779.7L639.9,500H959.4z M639.9,20.7L120.6,540
				l159.8,159.8l679-679.1H639.9z"/>
		</defs>
		<clipPath id="SVGID_4_">
			<use xlink:href="#SVGID_3_"  style="overflow:visible;"/>
		</clipPath>
		<path class="st2" d="M120.6,540L639.9,20.7h319.5l-679,679.1L120.6,540z"/>
	</g>
	<g>
		<defs>
			<path id="SVGID_5_" d="M959.4,500L679.8,779.7l279.6,279.7H639.9L520,939.5L360.2,779.7L639.9,500H959.4z M639.9,20.7L120.6,540
				l159.8,159.8l679-679.1H639.9z"/>
		</defs>
		<clipPath id="SVGID_6_">
			<use xlink:href="#SVGID_5_"  style="overflow:visible;"/>
		</clipPath>
		<path class="st3" d="M639.9,1059.3h319.5L679.8,779.7L520,939.5L639.9,1059.3z"/>
	</g>
	<g>
		<defs>
			<path id="SVGID_7_" d="M959.4,500L679.8,779.7l279.6,279.7H639.9L520,939.5L360.2,779.7L639.9,500H959.4z M639.9,20.7L120.6,540
				l159.8,159.8l679-679.1H639.9z"/>
		</defs>
		<clipPath id="SVGID_8_">
			<use xlink:href="#SVGID_7_"  style="overflow:visible;"/>
		</clipPath>
		
			<linearGradient id="SVGID_9_" gradientUnits="userSpaceOnUse" x1="-20688.2891" y1="-100372.8516" x2="-20212.2285" y2="-100848.9141" gradientTransform="matrix(9.704777e-03 0 0 9.704790e-03 -24746.1563 -10233.8672)">
			<stop  offset="0" style="stop-color:#1A237E;stop-opacity:0.4"/>
			<stop  offset="1" style="stop-color:#1A237E;stop-opacity:0"/>
		</linearGradient>
		<path class="st4" d="M679.8,779.7L520,939.5l237-82.1L679.8,779.7z"/>
	</g>
	<g>
		<defs>
			<path id="SVGID_10_" d="M959.4,500L679.8,779.7l279.6,279.7H639.9L520,939.5L360.2,779.7L639.9,500H959.4z M639.9,20.7L120.6,540
				l159.8,159.8l679-679.1H639.9z"/>
		</defs>
		<clipPath id="SVGID_11_">
			<use xlink:href="#SVGID_10_"  style="overflow:visible;"/>
		</clipPath>
		<g class="st5">
			<path class="st6" d="M360.3,779.6l159.8-159.8l159.8,159.8L520.1,939.5L360.3,779.6z"/>
		</g>
	</g>
	
		<radialGradient id="SVGID_12_" cx="201582.1875" cy="93969.875" r="5082.8887" gradientTransform="matrix(9.704777e-03 0 0 9.704790e-03 -24746.1563 -10233.8672)" gradientUnits="userSpaceOnUse">
		<stop  offset="0" style="stop-color:#FFFFFF;stop-opacity:0.1"/>
		<stop  offset="1" style="stop-color:#FFFFFF;stop-opacity:0"/>
	</radialGradient>
	<path class="st7" d="M959.4,500L679.8,779.7l279.6,279.7H639.9L520,939.5L360.2,779.7L639.9,500H959.4z M639.9,20.7L120.6,540
		l159.8,159.8l679-679.1H639.9z"/>
</g>
</svg>
